<svg xmlns="http://www.w3.org/2000/svg" xmlns:xlink="http://www.w3.org/1999/xlink" version="1.1" id="victorylogo" x="0px" y="0px" viewBox="0 0 433 306.6" style="enable-background:new 0 0 433 306.6;" xml:space="preserve">
<style xmlns="http://www.w3.org/2000/svg" type="text/css">
	.st1{fill:#fff;}
</style>

<path class="st1" d="M393.1,61.2c0,0-7.8,8.8-16.6,15.4c-8.8,6.6-19.1,13.4-32.8,13.4c0,0,24.7-14.3,35.8-36.5  C390.7,31.4,392.2,16.8,393,0c0,0-24.4,31-65.9,49.7C285.6,68.5,283.4,68,283.4,68l-25.2,55.8L240,75c2-0.5,8.2-1.7,14.2-0.3  c7.2,1.7,10.2,7.3,10.2,7.3c2.7-8.7,1.2-16.5-3.8-22.4c-5-5.9-12.7-7.3-12.7-7.3c0.9-13.6-12.7-20-27.3-20s-19.2,3.1-29.1,3.1  c-9.9,0-19.2-4.4-19.2-4.4c0.9,10.7,14.6,19.8,14.6,19.8c-7.2,0-10.5-3.7-10.5-3.7c3.4,9.3,12.7,15.6,12.7,15.6  c-8.5,0.3-11.3-2.4-11.3-2.4c4.7,9,16.2,13.9,16.2,13.9l-18.6,49.7L150.1,68c0,0-2.1,0.5-43.6-18.3C65,31,40.6,0,40.6,0  c0.8,16.8,2.3,31.4,13.4,53.5C65.2,75.7,89.9,90,89.9,90c-13.7,0-23.9-6.9-32.8-13.4C48.2,70,40.4,61.2,40.4,61.2  c11.6,55.8,66.4,71.7,66.4,71.7c-24.7,4.3-51.6-19.7-51.6-19.7c1.7,3.4,4.1,23.9,28.8,36.9c24.7,13,19.7,7.2,53.2,18  c33.6,10.8,52.5,29.4,52.5,29.4s-6.3-19.1-35.7-33.7c-29.4-14.6-54.2-18.2-54.2-18.2s22.9-0.8,36.3-12.8c0,0-43.2-7.2-64.4-35.8  c0,0,17.8,6.9,45-2c0,0-41.8-15.9-61.6-64.2c0,0,47,37.7,87.3,46.1L175,148l21.4-47.6l-7.3,39.1l27.8-43l27.8,43l-7.3-39.1  l21.4,47.6l32.5-71.1c40.3-8.4,87.3-46.1,87.3-46.1C358.5,79.2,316.7,95,316.7,95c27.2,8.8,45,2,45,2  c-21.2,28.7-64.4,35.8-64.4,35.8c13.4,12.1,36.3,12.8,36.3,12.8s-24.7,3.5-54.2,18.2s-35.7,33.7-35.7,33.7s18.9-18.6,52.5-29.4  c33.6-10.8,28.5-5,53.2-18c24.7-13,27.2-33.6,28.8-36.9c0,0-26.8,23.9-51.6,19.7C326.8,132.9,381.5,117,393.1,61.2z M233.9,51.2  c-0.5,0.9-2.1,2.4-6.6,2.5c-4.7,0.1-11.1-5.1-14.3-8.1c-0.5-0.5,0-1.3,0.6-1c3.3,1.2,8.5,3.2,11.1,4c3,1,7.1,1.5,8.7,1.7  C233.9,50.4,234.1,50.9,233.9,51.2z"/>
</svg>